<?xml version="1.0" standalone="no"?>
<!DOCTYPE svg PUBLIC "-//W3C//DTD SVG 20010904//EN"
 "http://www.w3.org/TR/2001/REC-SVG-20010904/DTD/svg10.dtd">
<svg version="1.0" xmlns="http://www.w3.org/2000/svg"
 width="709.000000pt" height="398.000000pt" viewBox="0 0 709.000000 398.000000"
 preserveAspectRatio="xMidYMid meet">

<g transform="translate(0.000000,398.000000) scale(0.100000,-0.100000)"
fill="#000000" stroke="none">
<path d="M1297 2793 c-21 -34 -10 -518 13 -578 17 -44 99 -124 140 -135 54
-15 181 -12 233 6 61 21 111 77 134 151 15 48 18 92 17 248 0 105 -4 216 -8
248 l-8 58 -71 -3 -72 -3 0 -230 c0 -258 -4 -276 -61 -300 -43 -18 -62 -14
-104 21 -48 41 -61 103 -67 314 -3 102 -10 191 -15 198 -11 13 -124 17 -131 5z"/>
<path d="M1988 2793 c-53 -4 -58 -6 -65 -31 -3 -14 -1 -154 7 -309 7 -155 10
-301 6 -325 -3 -24 -3 -48 2 -54 4 -7 32 -9 74 -6 l66 4 7 93 c4 51 4 102 0
114 -3 11 -3 30 0 41 5 17 15 20 63 20 l57 0 55 -129 54 -129 44 -7 c44 -6
102 1 102 13 0 4 -9 21 -19 38 -10 17 -42 77 -71 133 l-52 102 49 52 c57 61
78 119 71 202 -4 48 -10 61 -43 95 -56 57 -126 81 -250 84 -55 2 -126 2 -157
-1z m228 -104 c56 -14 104 -58 104 -94 0 -36 -32 -79 -72 -98 -48 -22 -167
-32 -172 -15 -2 7 -7 57 -10 110 l-5 97 27 4 c53 8 84 7 128 -4z"/>
<path d="M4371 2785 c-71 -20 -105 -46 -131 -101 -16 -33 -21 -56 -17 -85 10
-72 44 -109 161 -173 130 -71 156 -99 156 -166 0 -79 -29 -94 -127 -65 -40 12
-59 25 -85 58 -18 23 -37 45 -42 49 -14 10 -106 -40 -106 -57 0 -27 26 -79 51
-102 49 -44 117 -66 224 -70 85 -4 105 -2 135 15 58 32 93 84 98 146 9 108
-33 164 -180 242 -61 33 -94 56 -104 76 -30 57 3 89 101 98 l60 5 3 56 c2 39
-1 59 -11 67 -23 20 -127 23 -186 7z"/>
<path d="M2732 2773 c-192 -68 -258 -477 -102 -633 67 -67 164 -94 252 -70 38
11 135 105 162 159 45 87 59 249 29 355 -21 75 -80 136 -171 177 -71 32 -106
35 -170 12z m138 -158 c63 -33 111 -175 90 -269 -15 -68 -49 -131 -80 -150
-16 -9 -48 -16 -73 -16 -39 0 -49 5 -75 35 -38 43 -52 90 -52 177 0 55 6 82
32 138 42 95 89 120 158 85z"/>
<path d="M3175 2783 c-27 -2 -54 -8 -58 -12 -5 -5 12 -61 37 -124 25 -64 46
-119 46 -123 0 -3 16 -42 35 -86 48 -108 104 -259 111 -300 12 -61 20 -68 79
-68 l53 0 21 63 c11 34 43 148 70 252 28 105 63 235 79 290 25 87 27 101 14
109 -17 10 -111 1 -124 -12 -9 -9 -108 -309 -108 -329 0 -7 -4 -13 -10 -13 -5
0 -10 5 -10 10 0 15 -63 172 -104 261 -32 68 -53 93 -74 87 -4 -1 -29 -3 -57
-5z"/>
<path d="M5383 2773 c-108 -38 -186 -200 -184 -383 2 -165 59 -266 174 -309
112 -41 171 -26 259 67 84 89 114 171 111 307 -2 164 -51 242 -190 306 -69 32
-107 35 -170 12z m143 -162 c40 -24 68 -72 84 -140 16 -67 8 -137 -24 -206
-28 -62 -63 -85 -127 -85 -105 0 -162 166 -109 318 42 119 102 158 176 113z"/>
<path d="M713 2764 c-8 -20 3 -684 11 -692 4 -3 111 -6 238 -6 l232 -1 9 42
c4 24 4 62 0 85 l-9 43 -146 -3 -145 -3 -7 32 c-11 57 -10 59 47 59 75 0 78 5
75 91 l-3 74 -58 0 -57 0 0 57 0 57 118 3 117 3 0 77 c0 42 -2 78 -5 81 -3 2
-96 7 -208 11 -183 6 -203 5 -209 -10z"/>
<path d="M3772 2760 c-3 -8 -6 -35 -7 -60 l0 -45 40 -5 40 -5 8 -175 c4 -96 6
-197 5 -225 -3 -47 -5 -50 -33 -55 -29 -5 -30 -7 -33 -68 l-3 -63 133 7 c175
9 178 10 178 74 0 53 0 53 -60 54 l-35 1 4 130 c2 72 4 171 5 220 l2 90 37 9
37 10 0 58 c0 48 -3 58 -17 59 -10 1 -80 2 -157 3 -114 1 -139 -2 -144 -14z"/>
<path d="M4785 2770 c-4 -6 -8 -79 -6 -102 1 -12 12 -18 39 -20 36 -3 37 -5
44 -48 3 -25 7 -127 7 -227 l1 -182 -32 -3 -33 -3 0 -60 0 -60 130 4 c172 5
177 7 173 73 l-3 53 -42 -3 -43 -2 0 67 c0 38 3 138 7 224 l6 156 36 9 c35 9
36 11 39 58 2 27 -2 54 -8 60 -10 10 -309 16 -315 6z"/>
<path d="M5835 2761 c-7 -12 -6 -538 2 -627 l5 -62 54 -7 c30 -3 68 -4 84 0
l30 7 -1 81 c0 45 -4 121 -7 170 -4 48 -5 87 -2 86 3 0 19 -30 37 -67 43 -90
131 -243 152 -265 15 -15 27 -16 101 -10 l85 8 7 50 c3 28 2 142 -3 255 -5
113 -6 243 -3 289 8 98 6 101 -83 101 l-63 0 -2 -227 -3 -228 -101 180 c-56
99 -112 200 -125 225 l-24 45 -67 3 c-37 2 -69 -2 -73 -7z"/>
<path d="M3345 1883 c-27 -2 -54 -8 -58 -12 -4 -4 -10 -168 -14 -364 l-5 -357
48 6 c27 4 65 9 84 13 l35 7 9 141 8 140 101 7 c123 9 151 20 205 81 46 52 57
91 49 163 -4 41 -11 53 -58 95 -34 30 -72 53 -104 63 -52 16 -214 25 -300 17z
m267 -144 c41 -11 58 -33 58 -77 0 -49 -30 -67 -126 -71 l-84 -3 0 87 0 87 58
-7 c31 -3 74 -11 94 -16z"/>
<path d="M3970 1882 l-55 -7 -6 -160 c-4 -88 -7 -251 -8 -362 l-1 -203 48 6
c26 4 63 9 82 13 l35 7 10 139 10 140 110 11 c61 5 119 15 131 21 11 7 39 32
62 56 45 50 58 91 49 165 -4 41 -12 53 -56 94 -34 32 -69 53 -104 63 -58 18
-223 27 -307 17z m278 -144 c36 -11 52 -33 52 -76 0 -51 -30 -67 -124 -67
l-81 0 -3 69 c-4 97 -3 99 65 91 32 -4 73 -11 91 -17z"/>
<path d="M2810 1847 c-10 -24 -61 -234 -80 -332 -7 -33 -27 -118 -46 -190 -19
-71 -34 -138 -34 -147 0 -20 24 -23 102 -12 l45 6 32 104 c19 60 40 108 50
113 9 5 34 11 56 12 38 4 40 3 54 -36 7 -22 23 -75 35 -118 11 -43 24 -78 29
-78 4 0 35 3 68 7 l61 7 -7 51 c-8 67 -138 527 -170 602 l-13 31 -86 1 c-81 1
-87 0 -96 -21z m142 -249 c15 -45 28 -83 28 -85 0 -1 -23 -3 -51 -3 -51 0 -51
0 -46 28 4 15 11 55 18 90 6 35 14 61 17 57 3 -3 18 -42 34 -87z"/>
<path d="M6857 173 c-4 -3 -7 -44 -7 -90 l0 -83 120 0 120 0 0 90 0 90 -113 0
c-63 0 -117 -3 -120 -7z"/>
</g>
</svg>
